<svg xmlns="http://www.w3.org/2000/svg" width="100%" height="100%" viewBox="0 0 2560 1024" style="stroke-linecap:round;stroke-linejoin:round"><rect x="0" y="0" width="2560" height="1024" fill="#1a1a1a"/><path d="M488 653l40 0 0-121 87 0 0-31 -87 0 0-89 116 0 0-31 -156 0 0 271ZM681 653l39 0 0-203 -39 0 0 203ZM699 413c15 0 29-11 29-28 0-13-8-24-25-24 -14 0-29 12-29 28 0 15 12 24 25 24ZM768 551c0 66 32 105 90 105 24 0 55-7 69-18l-7-22c-10 6-37 11-51 11 -33 0-60-15-62-63 0-1 0-2 0-4l125 0c2-9 2-21 2-36 -2-51-34-77-75-77 -60 1-91 45-91 104ZM808 534c5-44 25-59 49-59 36 0 42 30 40 59l-90 0Z" fill="#666"/><rect x="983" y="356" width="39" height="297" fill="#666"/><path d="M1071 559c0 66 37 97 80 97 31 0 47-13 57-23l0 7c0 14 8 16 20 16l17 0 0-300 -39 0 0 85 1 11c-9-3-20-5-33-5 -62 0-102 46-102 112ZM1162 625c-33 0-52-23-51-72 1-51 25-78 58-78 17 0 29 2 37 9l0 124c-9 7-24 16-44 16Z" fill="#666"/><path d="M1319 657l49-2 4-3c21-19 38-39 50-59l10 64 46-2 4-3c62-52 102-110 102-174 0-19-2-25-2-28l-57 0c0 18-3 46-5 58 -5 33-17 63-31 85l-11 14 -2-37 -9-119 -61 0 6 59c-6 32-21 63-34 83l-11 14 -2-37 -11-119 -64 0 18 140 10 67ZM1603 653l64 0 28-203 -64 0 -28 203ZM1669 419c26 0 39-16 39-36 0-16-12-30-32-30 -22 0-37 16-37 36 0 17 14 30 30 30ZM1713 653l64 0 18-129 1 1c13-11 24-16 40-16 6 0 15 1 18 5l11-64c-2-1-6-2-13-2 -24 0-44 22-52 45l0 0 0-1 3-41 -61 0 -28 203ZM1874 574c0 42 22 82 77 82 46 0 79-27 90-42l-16-30c-9 12-35 29-58 29 -21 0-26-11-26-28 59-15 108-38 108-91 0-29-19-47-61-47 -64 0-115 53-115 127ZM1940 553c1-25 12-71 34-71 9 0 13 6 13 18 0 29-27 52-48 53Z" fill="#999"/><path d="M0 706l329 0 17 154 24-711c30 1003 94 563 2191 557" style="fill:none;stroke-width:8;stroke:#20df7f"/><rect x="2068" y="256" width="16" height="512" fill="#e6e6e6"/></svg>